<svg version="1.1" id="Layer_1" xmlns="http://www.w3.org/2000/svg" xmlns:xlink="http://www.w3.org/1999/xlink" x="0px" y="0px"
	 width="100%" viewBox="0 0 500 500" enable-background="new 0 0 500 500" xml:space="preserve">
<path fill="#5E17EB" opacity="1.000000" stroke="none" 
	d="
M333.000000,501.000000 
	C222.000031,501.000000 111.500053,501.000000 1.000059,501.000000 
	C1.000040,334.333405 1.000040,167.666794 1.000020,1.000149 
	C167.666565,1.000099 334.333130,1.000099 500.999756,1.000050 
	C500.999847,167.666519 500.999847,334.333038 500.999939,500.999786 
	C445.166656,501.000000 389.333344,501.000000 333.000000,501.000000 
M415.174072,373.261169 
	C404.111542,335.956909 393.051544,298.651855 381.985870,261.348541 
	C364.962097,203.959930 347.909424,146.579849 330.974701,89.164970 
	C330.027527,85.953651 328.785278,84.612434 325.214874,84.732384 
	C316.394745,85.028709 307.557953,84.829369 298.727875,84.829269 
	C295.355103,84.829239 291.982300,84.829262 288.453949,84.829262 
	C292.653717,91.378746 297.000427,96.936073 300.056580,103.130142 
	C315.026215,133.470322 315.971283,165.128372 306.300446,196.928452 
	C297.312653,226.482697 277.208710,246.785599 249.317291,259.609741 
	C247.783264,260.315063 245.247726,261.597473 245.287277,262.520935 
	C245.536255,268.334686 244.522858,274.220398 248.970673,279.517792 
	C281.743958,318.551025 314.299896,357.767059 346.825897,397.007050 
	C348.958649,399.580109 351.132111,400.595520 354.442871,400.575348 
	C375.767578,400.445648 397.093475,400.515259 418.418976,400.496155 
	C419.846344,400.494873 421.273560,400.302673 423.193176,400.163605 
	C420.517517,391.151978 417.974640,382.587616 415.174072,373.261169 
M204.473969,203.069824 
	C207.013672,200.945770 209.872559,199.103851 212.040421,196.651138 
	C224.565140,182.480804 227.334274,156.705048 218.508698,139.338837 
	C213.761444,129.997620 206.668884,123.504158 196.717499,119.996674 
	C179.676575,113.990410 162.078613,115.004089 144.341858,115.102089 
	C144.341858,147.505737 144.341858,179.499374 144.341858,212.297913 
	C156.530960,211.648605 168.388077,211.718109 180.026367,210.156631 
	C188.115356,209.071350 195.903534,205.744202 204.473969,203.069824 
M194.499664,400.515167 
	C206.406586,400.515167 218.313507,400.515167 230.394730,400.515167 
	C230.569733,397.473846 230.496643,395.288452 230.854263,393.175903 
	C231.931122,386.814911 229.677597,381.930420 225.712234,376.868134 
	C199.426453,343.311066 173.466202,309.499023 147.388336,275.778992 
	C146.545074,274.688599 145.575729,273.695709 144.278137,272.216034 
	C144.278137,315.349243 144.278137,357.707825 144.278137,400.515076 
	C160.902390,400.515076 177.201019,400.515076 194.499664,400.515167 
z"/>
<path fill="#000001" opacity="1.000000" stroke="none" 
	d="
M415.302917,373.642212 
	C417.974640,382.587616 420.517517,391.151978 423.193176,400.163605 
	C421.273560,400.302673 419.846344,400.494873 418.418976,400.496155 
	C397.093475,400.515259 375.767578,400.445648 354.442871,400.575348 
	C351.132111,400.595520 348.958649,399.580109 346.825897,397.007050 
	C314.299896,357.767059 281.743958,318.551025 248.970673,279.517792 
	C244.522858,274.220398 245.536255,268.334686 245.287277,262.520935 
	C245.247726,261.597473 247.783264,260.315063 249.317291,259.609741 
	C277.208710,246.785599 297.312653,226.482697 306.300446,196.928452 
	C315.971283,165.128372 315.026215,133.470322 300.056580,103.130142 
	C297.000427,96.936073 292.653717,91.378746 288.453949,84.829262 
	C291.982300,84.829262 295.355103,84.829239 298.727875,84.829269 
	C307.557953,84.829369 316.394745,85.028709 325.214874,84.732384 
	C328.785278,84.612434 330.027527,85.953651 330.974701,89.164970 
	C347.909424,146.579849 364.962097,203.959930 381.985870,261.348541 
	C393.051544,298.651855 404.111542,335.956909 415.302917,373.642212 
z"/>
<path fill="#000001" opacity="1.000000" stroke="none" 
	d="
M204.150024,203.244232 
	C195.903534,205.744202 188.115356,209.071350 180.026367,210.156631 
	C168.388077,211.718109 156.530960,211.648605 144.341858,212.297913 
	C144.341858,179.499374 144.341858,147.505737 144.341858,115.102089 
	C162.078613,115.004089 179.676575,113.990410 196.717499,119.996674 
	C206.668884,123.504158 213.761444,129.997620 218.508698,139.338837 
	C227.334274,156.705048 224.565140,182.480804 212.040421,196.651138 
	C209.872559,199.103851 207.013672,200.945770 204.150024,203.244232 
z"/>
<path fill="#010002" opacity="1.000000" stroke="none" 
	d="
M193.999664,400.515137 
	C177.201019,400.515076 160.902390,400.515076 144.278137,400.515076 
	C144.278137,357.707825 144.278137,315.349243 144.278137,272.216034 
	C145.575729,273.695709 146.545074,274.688599 147.388336,275.778992 
	C173.466202,309.499023 199.426453,343.311066 225.712234,376.868134 
	C229.677597,381.930420 231.931122,386.814911 230.854263,393.175903 
	C230.496643,395.288452 230.569733,397.473846 230.394730,400.515167 
	C218.313507,400.515167 206.406586,400.515167 193.999664,400.515137 
z"/>
</svg>